# xmcd
#
# Track frame offsets: 
#        150
#        21139
#        37474
#        54607
#        71733
#        89303
#        106171
#        126002
#        158249
#        183094
#        197123
#        221881
#        249195
#
# Disc length: 3483 seconds
#
# Revision: 0
# Processed by: cddbd v1.5.2PL0 Copyright (c) Steve Scherf et al.
# Submitted via: ExactAudioCopy v1.0b3
#
DISCID=b80d990d
DTITLE=Bassekou Kouyate and Ngoni Ba - Jama Ko
DYEAR=2013
DGENRE=Folk
TTITLE0=Jama Ko
TTITLE1=Sinaly
TTITLE2=Dankou
TTITLE3=Ne Me Fatigue Pas
TTITLE4=Kele Magni
TTITLE5=Madou
TTITLE6=Kensogni
TTITLE7=Mali Koori
TTITLE8=Wagadou
TTITLE9=Djadje
TTITLE10=Segu Jajiri
TTITLE11=Poye 2
TTITLE12=Moustafa
EXTD=
EXTT0=
EXTT1=
EXTT2=
EXTT3=
EXTT4=
EXTT5=
EXTT6=
EXTT7=
EXTT8=
EXTT9=
EXTT10=
EXTT11=
EXTT12=
PLAYORDER=
